<svg class="border shadow-md" viewBox="0 0 1348.5511111111111 758.5600000000001" style="width: 1348.55px; height: 758.56px;" xmlns="http://www.w3.org/2000/svg" preserveAspectRatio="none"><rect class="bg" id="bg" x="0" y="0" width="1348.5511111111111" height="758.5600000000001" fill="#ffffff"/><g><path d="M 0 -50.57066666666667V -80.91306666666667 H 67.42755555555556 V -40.45653333333333 H 134.8551111111111 V -30.3424 H 202.28266666666667 V -20.22826666666667 H 269.7102222222222 V -20.22826666666667 H 337.1377777777778 V -50.57066666666667 H 404.56533333333334 V -30.3424 H 471.9928888888889 V -60.6848 H 539.4204444444445 V -40.45653333333333 H 606.848 V -30.3424 H 674.2755555555556 V -30.3424 H 741.7031111111112 V -20.22826666666667 H 809.1306666666667 V -20.22826666666667 H 876.5582222222222 V -60.6848 H 943.9857777777778 V -30.3424 H 1011.4133333333334 V -70.79893333333334 H 1078.840888888889 V -80.91306666666667 H 1146.2684444444444 V -20.22826666666667 H 1213.696 V -20.22826666666667 H 1281.1235555555556 V -20.22826666666667 H 1348.5511111111111 V 759.5600000000001 H 0 V -50.57066666666667 Z" fill="#8A40DD"/></g><g><path d="M 0 0V 0 H 67.42755555555556 V 10.114133333333333 H 134.8551111111111 V 0 H 202.28266666666667 V 0 H 269.7102222222222 V 20.228266666666666 H 337.1377777777778 V -10.114133333333333 H 404.56533333333334 V 30.342399999999998 H 471.9928888888889 V -30.342399999999998 H 539.4204444444445 V -20.228266666666666 H 606.848 V 30.342399999999998 H 674.2755555555556 V -20.228266666666666 H 741.7031111111112 V -10.114133333333333 H 809.1306666666667 V 0 H 876.5582222222222 V 0 H 943.9857777777778 V 20.228266666666666 H 1011.4133333333334 V 10.114133333333333 H 1078.840888888889 V -30.342399999999998 H 1146.2684444444444 V 10.114133333333333 H 1213.696 V -30.342399999999998 H 1281.1235555555556 V -30.342399999999998 H 1348.5511111111111 V 759.5600000000001 H 0 V 0 Z" fill="#823dd2"/></g><g><path d="M 0 50.57066666666667V 40.45653333333333 H 67.42755555555556 V 20.22826666666667 H 134.8551111111111 V 40.45653333333333 H 202.28266666666667 V 60.6848 H 269.7102222222222 V 60.6848 H 337.1377777777778 V 80.91306666666667 H 404.56533333333334 V 50.57066666666667 H 471.9928888888889 V 40.45653333333333 H 539.4204444444445 V 20.22826666666667 H 606.848 V 80.91306666666667 H 674.2755555555556 V 60.6848 H 741.7031111111112 V 60.6848 H 809.1306666666667 V 50.57066666666667 H 876.5582222222222 V 60.6848 H 943.9857777777778 V 80.91306666666667 H 1011.4133333333334 V 60.6848 H 1078.840888888889 V 20.22826666666667 H 1146.2684444444444 V 60.6848 H 1213.696 V 20.22826666666667 H 1281.1235555555556 V 80.91306666666667 H 1348.5511111111111 V 759.5600000000001 H 0 V 50.57066666666667 Z" fill="#7a3ac7"/></g><g><path d="M 0 101.14133333333334V 101.14133333333334 H 67.42755555555556 V 101.14133333333334 H 134.8551111111111 V 131.48373333333333 H 202.28266666666667 V 121.3696 H 269.7102222222222 V 131.48373333333333 H 337.1377777777778 V 131.48373333333333 H 404.56533333333334 V 101.14133333333334 H 471.9928888888889 V 121.3696 H 539.4204444444445 V 121.3696 H 606.848 V 111.25546666666666 H 674.2755555555556 V 101.14133333333334 H 741.7031111111112 V 121.3696 H 809.1306666666667 V 101.14133333333334 H 876.5582222222222 V 121.3696 H 943.9857777777778 V 111.25546666666666 H 1011.4133333333334 V 70.79893333333334 H 1078.840888888889 V 131.48373333333333 H 1146.2684444444444 V 80.91306666666667 H 1213.696 V 91.02720000000001 H 1281.1235555555556 V 111.25546666666666 H 1348.5511111111111 V 759.5600000000001 H 0 V 101.14133333333334 Z" fill="#7237bc"/></g><g><path d="M 0 151.712V 182.0544 H 67.42755555555556 V 131.48373333333333 H 134.8551111111111 V 141.59786666666665 H 202.28266666666667 V 161.82613333333333 H 269.7102222222222 V 151.712 H 337.1377777777778 V 182.0544 H 404.56533333333334 V 131.48373333333333 H 471.9928888888889 V 121.36959999999999 H 539.4204444444445 V 171.94026666666664 H 606.848 V 182.0544 H 674.2755555555556 V 151.712 H 741.7031111111112 V 171.94026666666664 H 809.1306666666667 V 161.82613333333333 H 876.5582222222222 V 151.712 H 943.9857777777778 V 151.712 H 1011.4133333333334 V 121.36959999999999 H 1078.840888888889 V 151.712 H 1146.2684444444444 V 161.82613333333333 H 1213.696 V 151.712 H 1281.1235555555556 V 151.712 H 1348.5511111111111 V 759.5600000000001 H 0 V 151.712 Z" fill="#6a34b1"/></g><g><path d="M 0 202.28266666666667V 202.28266666666667 H 67.42755555555556 V 202.28266666666667 H 134.8551111111111 V 171.94026666666667 H 202.28266666666667 V 232.62506666666667 H 269.7102222222222 V 222.51093333333333 H 337.1377777777778 V 171.94026666666667 H 404.56533333333334 V 202.28266666666667 H 471.9928888888889 V 212.3968 H 539.4204444444445 V 202.28266666666667 H 606.848 V 202.28266666666667 H 674.2755555555556 V 232.62506666666667 H 741.7031111111112 V 222.51093333333333 H 809.1306666666667 V 171.94026666666667 H 876.5582222222222 V 232.62506666666667 H 943.9857777777778 V 202.28266666666667 H 1011.4133333333334 V 212.3968 H 1078.840888888889 V 182.05440000000002 H 1146.2684444444444 V 202.28266666666667 H 1213.696 V 202.28266666666667 H 1281.1235555555556 V 202.28266666666667 H 1348.5511111111111 V 759.5600000000001 H 0 V 202.28266666666667 Z" fill="#6231a6"/></g><g><path d="M 0 252.85333333333335V 273.08160000000004 H 67.42755555555556 V 232.6250666666667 H 134.8551111111111 V 252.85333333333335 H 202.28266666666667 V 283.19573333333335 H 269.7102222222222 V 262.96746666666667 H 337.1377777777778 V 252.85333333333335 H 404.56533333333334 V 283.19573333333335 H 471.9928888888889 V 252.85333333333335 H 539.4204444444445 V 252.85333333333335 H 606.848 V 273.08160000000004 H 674.2755555555556 V 262.96746666666667 H 741.7031111111112 V 273.08160000000004 H 809.1306666666667 V 252.85333333333335 H 876.5582222222222 V 273.08160000000004 H 943.9857777777778 V 252.85333333333335 H 1011.4133333333334 V 273.08160000000004 H 1078.840888888889 V 252.85333333333335 H 1146.2684444444444 V 262.96746666666667 H 1213.696 V 252.85333333333335 H 1281.1235555555556 V 262.96746666666667 H 1348.5511111111111 V 759.5600000000001 H 0 V 252.85333333333335 Z" fill="#5a2e9b"/></g><g><path d="M 0 303.424V 303.424 H 67.42755555555556 V 313.5381333333333 H 134.8551111111111 V 293.30986666666666 H 202.28266666666667 V 293.30986666666666 H 269.7102222222222 V 333.7664 H 337.1377777777778 V 283.1957333333333 H 404.56533333333334 V 303.424 H 471.9928888888889 V 323.65226666666666 H 539.4204444444445 V 283.1957333333333 H 606.848 V 303.424 H 674.2755555555556 V 303.424 H 741.7031111111112 V 293.30986666666666 H 809.1306666666667 V 293.30986666666666 H 876.5582222222222 V 333.7664 H 943.9857777777778 V 303.424 H 1011.4133333333334 V 313.5381333333333 H 1078.840888888889 V 323.65226666666666 H 1146.2684444444444 V 303.424 H 1213.696 V 293.30986666666666 H 1281.1235555555556 V 283.1957333333333 H 1348.5511111111111 V 759.5600000000001 H 0 V 303.424 Z" fill="#522b90"/></g><g><path d="M 0 353.99466666666666V 323.65226666666666 H 67.42755555555556 V 353.99466666666666 H 134.8551111111111 V 374.22293333333334 H 202.28266666666667 V 374.22293333333334 H 269.7102222222222 V 364.1088 H 337.1377777777778 V 353.99466666666666 H 404.56533333333334 V 333.7664 H 471.9928888888889 V 343.88053333333335 H 539.4204444444445 V 384.33706666666666 H 606.848 V 323.65226666666666 H 674.2755555555556 V 374.22293333333334 H 741.7031111111112 V 364.1088 H 809.1306666666667 V 374.22293333333334 H 876.5582222222222 V 333.7664 H 943.9857777777778 V 364.1088 H 1011.4133333333334 V 323.65226666666666 H 1078.840888888889 V 374.22293333333334 H 1146.2684444444444 V 353.99466666666666 H 1213.696 V 364.1088 H 1281.1235555555556 V 353.99466666666666 H 1348.5511111111111 V 759.5600000000001 H 0 V 353.99466666666666 Z" fill="#4a2885"/></g><g><path d="M 0 404.56533333333334V 394.45120000000003 H 67.42755555555556 V 434.90773333333334 H 134.8551111111111 V 384.33706666666666 H 202.28266666666667 V 374.22293333333334 H 269.7102222222222 V 424.7936 H 337.1377777777778 V 434.90773333333334 H 404.56533333333334 V 424.7936 H 471.9928888888889 V 384.33706666666666 H 539.4204444444445 V 404.56533333333334 H 606.848 V 404.56533333333334 H 674.2755555555556 V 414.67946666666666 H 741.7031111111112 V 404.56533333333334 H 809.1306666666667 V 434.90773333333334 H 876.5582222222222 V 434.90773333333334 H 943.9857777777778 V 424.7936 H 1011.4133333333334 V 414.67946666666666 H 1078.840888888889 V 404.56533333333334 H 1146.2684444444444 V 394.45120000000003 H 1213.696 V 374.22293333333334 H 1281.1235555555556 V 404.56533333333334 H 1348.5511111111111 V 759.5600000000001 H 0 V 404.56533333333334 Z" fill="#42257a"/></g><g><path d="M 0 455.136V 424.7936 H 67.42755555555556 V 485.4784 H 134.8551111111111 V 475.3642666666667 H 202.28266666666667 V 455.136 H 269.7102222222222 V 475.3642666666667 H 337.1377777777778 V 465.25013333333334 H 404.56533333333334 V 475.3642666666667 H 471.9928888888889 V 465.25013333333334 H 539.4204444444445 V 455.136 H 606.848 V 455.136 H 674.2755555555556 V 455.136 H 741.7031111111112 V 445.0218666666667 H 809.1306666666667 V 475.3642666666667 H 876.5582222222222 V 465.25013333333334 H 943.9857777777778 V 485.4784 H 1011.4133333333334 V 485.4784 H 1078.840888888889 V 434.90773333333334 H 1146.2684444444444 V 465.25013333333334 H 1213.696 V 465.25013333333334 H 1281.1235555555556 V 455.136 H 1348.5511111111111 V 759.5600000000001 H 0 V 455.136 Z" fill="#3a226f"/></g><g><path d="M 0 505.7066666666667V 475.3642666666667 H 67.42755555555556 V 505.7066666666667 H 134.8551111111111 V 475.3642666666667 H 202.28266666666667 V 515.8208000000001 H 269.7102222222222 V 536.0490666666667 H 337.1377777777778 V 525.9349333333333 H 404.56533333333334 V 475.3642666666667 H 471.9928888888889 V 505.7066666666667 H 539.4204444444445 V 475.3642666666667 H 606.848 V 505.7066666666667 H 674.2755555555556 V 536.0490666666667 H 741.7031111111112 V 505.7066666666667 H 809.1306666666667 V 505.7066666666667 H 876.5582222222222 V 536.0490666666667 H 943.9857777777778 V 525.9349333333333 H 1011.4133333333334 V 525.9349333333333 H 1078.840888888889 V 525.9349333333333 H 1146.2684444444444 V 475.3642666666667 H 1213.696 V 515.8208000000001 H 1281.1235555555556 V 505.7066666666667 H 1348.5511111111111 V 759.5600000000001 H 0 V 505.7066666666667 Z" fill="#321f64"/></g><g><path d="M 0 556.2773333333333V 556.2773333333333 H 67.42755555555556 V 525.9349333333333 H 134.8551111111111 V 586.6197333333333 H 202.28266666666667 V 556.2773333333333 H 269.7102222222222 V 566.3914666666667 H 337.1377777777778 V 586.6197333333333 H 404.56533333333334 V 586.6197333333333 H 471.9928888888889 V 586.6197333333333 H 539.4204444444445 V 536.0490666666667 H 606.848 V 576.5056 H 674.2755555555556 V 556.2773333333333 H 741.7031111111112 V 525.9349333333333 H 809.1306666666667 V 586.6197333333333 H 876.5582222222222 V 525.9349333333333 H 943.9857777777778 V 576.5056 H 1011.4133333333334 V 546.1632 H 1078.840888888889 V 546.1632 H 1146.2684444444444 V 586.6197333333333 H 1213.696 V 566.3914666666667 H 1281.1235555555556 V 586.6197333333333 H 1348.5511111111111 V 759.5600000000001 H 0 V 556.2773333333333 Z" fill="#2a1c59"/></g><g><path d="M 0 606.848V 637.1904 H 67.42755555555556 V 606.848 H 134.8551111111111 V 616.9621333333333 H 202.28266666666667 V 586.6197333333333 H 269.7102222222222 V 586.6197333333333 H 337.1377777777778 V 606.848 H 404.56533333333334 V 637.1904 H 471.9928888888889 V 606.848 H 539.4204444444445 V 637.1904 H 606.848 V 627.0762666666666 H 674.2755555555556 V 627.0762666666666 H 741.7031111111112 V 627.0762666666666 H 809.1306666666667 V 627.0762666666666 H 876.5582222222222 V 616.9621333333333 H 943.9857777777778 V 616.9621333333333 H 1011.4133333333334 V 606.848 H 1078.840888888889 V 627.0762666666666 H 1146.2684444444444 V 576.5056 H 1213.696 V 596.7338666666666 H 1281.1235555555556 V 627.0762666666666 H 1348.5511111111111 V 759.5600000000001 H 0 V 606.848 Z" fill="#22194e"/></g><g><path d="M 0 657.4186666666667V 667.5328000000001 H 67.42755555555556 V 687.7610666666667 H 134.8551111111111 V 677.6469333333333 H 202.28266666666667 V 667.5328000000001 H 269.7102222222222 V 657.4186666666667 H 337.1377777777778 V 687.7610666666667 H 404.56533333333334 V 667.5328000000001 H 471.9928888888889 V 627.0762666666667 H 539.4204444444445 V 637.1904000000001 H 606.848 V 647.3045333333333 H 674.2755555555556 V 647.3045333333333 H 741.7031111111112 V 677.6469333333333 H 809.1306666666667 V 657.4186666666667 H 876.5582222222222 V 687.7610666666667 H 943.9857777777778 V 657.4186666666667 H 1011.4133333333334 V 687.7610666666667 H 1078.840888888889 V 657.4186666666667 H 1146.2684444444444 V 627.0762666666667 H 1213.696 V 667.5328000000001 H 1281.1235555555556 V 657.4186666666667 H 1348.5511111111111 V 759.5600000000001 H 0 V 657.4186666666667 Z" fill="#1a1643"/></g><g><path d="M 0 707.9893333333333V 718.1034666666667 H 67.42755555555556 V 687.7610666666667 H 134.8551111111111 V 738.3317333333333 H 202.28266666666667 V 738.3317333333333 H 269.7102222222222 V 728.2176 H 337.1377777777778 V 728.2176 H 404.56533333333334 V 718.1034666666667 H 471.9928888888889 V 707.9893333333333 H 539.4204444444445 V 738.3317333333333 H 606.848 V 677.6469333333333 H 674.2755555555556 V 707.9893333333333 H 741.7031111111112 V 728.2176 H 809.1306666666667 V 707.9893333333333 H 876.5582222222222 V 738.3317333333333 H 943.9857777777778 V 707.9893333333333 H 1011.4133333333334 V 707.9893333333333 H 1078.840888888889 V 697.8752 H 1146.2684444444444 V 728.2176 H 1213.696 V 728.2176 H 1281.1235555555556 V 728.2176 H 1348.5511111111111 V 759.5600000000001 H 0 V 707.9893333333333 Z" fill="#121338"/></g></svg>